HIERARCHY
ROOT reference
{
  OFFSET 0 0 0
  CHANNELS 6 Xposition Yposition Zposition Zrotation Xrotation Yrotation
  JOINT Hips
  {
    OFFSET 347.352 87.9396 215.108
    CHANNELS 3 Zrotation Xrotation Yrotation
    JOINT RightUpLeg
    {
      OFFSET -9.26448 -1.5905 0.0349838
      CHANNELS 3 Zrotation Xrotation Yrotation
      JOINT RightLeg
      {
        OFFSET 0.0309074 -41.8937 0.0182011
        CHANNELS 3 Zrotation Xrotation Yrotation
        JOINT RightFoot
        {
          OFFSET 0.355296 -42.3801 0.810868
          CHANNELS 3 Zrotation Xrotation Yrotation
          End Site
          {
            OFFSET 0 -7.69 17.5
          }
        }
      }
    }
    JOINT LeftUpLeg
    {
      OFFSET 9.27369 -1.59127 -0.0547904
      CHANNELS 3 Zrotation Xrotation Yrotation
      JOINT LeftLeg
      {
        OFFSET 0.0553589 -41.8938 0.0587288
        CHANNELS 3 Zrotation Xrotation Yrotation
        JOINT LeftFoot
        {
          OFFSET 0.217916 -41.5497 -0.688939
          CHANNELS 3 Zrotation Xrotation Yrotation
          End Site
          {
            OFFSET 0 -7.69 17.5
          }
        }
      }
    }
    JOINT Spine
    {
      OFFSET 0.0383554 14.2988 0.0402393
      CHANNELS 3 Zrotation Xrotation Yrotation
      JOINT Spine1
      {
        OFFSET 0.0188251 9.70742 0.0136471
        CHANNELS 3 Zrotation Xrotation Yrotation
        JOINT Spine2
        {
          OFFSET 0.0421292 10.115 0.0126686
          CHANNELS 3 Zrotation Xrotation Yrotation
          JOINT Spine3
          {
            OFFSET 0.0499826 9.71803 0.0151296
            CHANNELS 3 Zrotation Xrotation Yrotation
            JOINT Neck
            {
              OFFSET 0.04654 10.3867 0.0448026
              CHANNELS 3 Zrotation Xrotation Yrotation
              JOINT Head
              {
                OFFSET 0.0370611 9.47282 0.0189897
                CHANNELS 3 Zrotation Xrotation Yrotation
                End Site
                {
                  OFFSET 0 15.95 0
                }
              }
            }
            JOINT RightShoulder
            {
              OFFSET -3.19309 6.93146 -0.00624137
              CHANNELS 3 Zrotation Xrotation Yrotation
              JOINT RightArm
              {
                OFFSET -12.7764 0.00688168 -0.00548706
                CHANNELS 3 Zrotation Xrotation Yrotation
                JOINT RightForeArm
                {
                  OFFSET -26.5073 -0.0244096 0.0677859
                  CHANNELS 3 Zrotation Xrotation Yrotation
                  JOINT RightHand
                  {
                    OFFSET -26.0056 -0.000416843 0.0508974
                    CHANNELS 3 Zrotation Xrotation Yrotation
                    JOINT RightHandThumb1
                    {
                      OFFSET -2.48905 0.190105 3.12053
                      CHANNELS 3 Zrotation Xrotation Yrotation
                      JOINT RightHandThumb2
                      {
                        OFFSET -3.68274 0 0
                        CHANNELS 3 Zrotation Xrotation Yrotation
                        JOINT RightHandThumb3
                        {
                          OFFSET -2.55832 0 0
                          CHANNELS 3 Zrotation Xrotation Yrotation
                          End Site
                          {
                            OFFSET -2.194 0 0
                          }
                        }
                      }
                    }
                    JOINT RightInHandIndex
                    {
                      OFFSET -3.22368 0.508421 1.97842
                      CHANNELS 3 Zrotation Xrotation Yrotation
                      JOINT RightHandIndex1
                      {
                        OFFSET -5.21684 -0.091368 0.999158
                        CHANNELS 3 Zrotation Xrotation Yrotation
                        JOINT RightHandIndex2
                        {
                          OFFSET -3.61937 0 0
                          CHANNELS 3 Zrotation Xrotation Yrotation
                          JOINT RightHandIndex3
                          {
                            OFFSET -2.0521 0 0
                            CHANNELS 3 Zrotation Xrotation Yrotation
                            End Site
                            {
                              OFFSET -1.805 0 0
                            }
                          }
                        }
                      }
                    }
                    JOINT RightInHandMiddle
                    {
                      OFFSET -3.38211 0.517263 0.756737
                      CHANNELS 3 Zrotation Xrotation Yrotation
                      JOINT RightHandMiddle1
                      {
                        OFFSET -5.17411 -0.084 0.313895
                        CHANNELS 3 Zrotation Xrotation Yrotation
                        JOINT RightHandMiddle2
                        {
                          OFFSET -3.94947 0 0
                          CHANNELS 3 Zrotation Xrotation Yrotation
                          JOINT RightHandMiddle3
                          {
                            OFFSET -2.47579 0 0
                            CHANNELS 3 Zrotation Xrotation Yrotation
                            End Site
                            {
                              OFFSET -1.975 0 0
                            }
                          }
                        }
                      }
                    }
                    JOINT RightInHandRing
                    {
                      OFFSET -3.36516 0.537895 -0.128947
                      CHANNELS 3 Zrotation Xrotation Yrotation
                      JOINT RightHandRing1
                      {
                        OFFSET -4.63474 -0.022105 -0.478947
                        CHANNELS 3 Zrotation Xrotation Yrotation
                        JOINT RightHandRing2
                        {
                          OFFSET -3.44238 0 0
                          CHANNELS 3 Zrotation Xrotation Yrotation
                          JOINT RightHandRing3
                          {
                            OFFSET -2.3881 0 0
                            CHANNELS 3 Zrotation Xrotation Yrotation
                            End Site
                            {
                              OFFSET -1.857 0 0
                            }
                          }
                        }
                      }
                    }
                    JOINT RightInHandPinky
                    {
                      OFFSET -3.16105 0.469368 -1.20179
                      CHANNELS 3 Zrotation Xrotation Yrotation
                      JOINT RightHandPinky1
                      {
                        OFFSET -4.14105 -0.022105 -1.09053
                        CHANNELS 3 Zrotation Xrotation Yrotation
                        JOINT RightHandPinky2
                        {
                          OFFSET -2.75653 0 0
                          CHANNELS 3 Zrotation Xrotation Yrotation
                          JOINT RightHandPinky3
                          {
                            OFFSET -1.74189 0 0
                            CHANNELS 3 Zrotation Xrotation Yrotation
                            End Site
                            {
                              OFFSET -1.645 0 0
                            }
                          }
                        }
                      }
                    }
                  }
                }
              }
            }
            JOINT LeftShoulder
            {
              OFFSET 3.25131 6.94393 -0.0111894
              CHANNELS 3 Zrotation Xrotation Yrotation
              JOINT LeftArm
              {
                OFFSET 12.7762 -0.0164608 -0.057961
                CHANNELS 3 Zrotation Xrotation Yrotation
                JOINT LeftForeArm
                {
                  OFFSET 26.494 -0.0292415 -0.00751187
                  CHANNELS 3 Zrotation Xrotation Yrotation
                  JOINT LeftHand
                  {
                    OFFSET 26.0005 -0.052199 0.00178648
                    CHANNELS 3 Zrotation Xrotation Yrotation
                    JOINT LeftHandThumb1
                    {
                      OFFSET 2.48905 0.190105 3.12053
                      CHANNELS 3 Zrotation Xrotation Yrotation
                      JOINT LeftHandThumb2
                      {
                        OFFSET 3.68274 0 0
                        CHANNELS 3 Zrotation Xrotation Yrotation
                        JOINT LeftHandThumb3
                        {
                          OFFSET 2.55832 0 0
                          CHANNELS 3 Zrotation Xrotation Yrotation
                          End Site
                          {
                            OFFSET 2.194 0 0
                          }
                        }
                      }
                    }
                    JOINT LeftInHandIndex
                    {
                      OFFSET 3.22368 0.508421 1.97842
                      CHANNELS 3 Zrotation Xrotation Yrotation
                      JOINT LeftHandIndex1
                      {
                        OFFSET 5.21684 -0.091368 0.999158
                        CHANNELS 3 Zrotation Xrotation Yrotation
                        JOINT LeftHandIndex2
                        {
                          OFFSET 3.61937 0 0
                          CHANNELS 3 Zrotation Xrotation Yrotation
                          JOINT LeftHandIndex3
                          {
                            OFFSET 2.0521 0 0
                            CHANNELS 3 Zrotation Xrotation Yrotation
                            End Site
                            {
                              OFFSET 1.805 0 0
                            }
                          }
                        }
                      }
                    }
                    JOINT LeftInHandMiddle
                    {
                      OFFSET 3.38211 0.517263 0.756737
                      CHANNELS 3 Zrotation Xrotation Yrotation
                      JOINT LeftHandMiddle1
                      {
                        OFFSET 5.17411 -0.084 0.313895
                        CHANNELS 3 Zrotation Xrotation Yrotation
                        JOINT LeftHandMiddle2
                        {
                          OFFSET 3.94947 0 0
                          CHANNELS 3 Zrotation Xrotation Yrotation
                          JOINT LeftHandMiddle3
                          {
                            OFFSET 2.47579 0 0
                            CHANNELS 3 Zrotation Xrotation Yrotation
                            End Site
                            {
                              OFFSET 1.975 0 0
                            }
                          }
                        }
                      }
                    }
                    JOINT LeftInHandRing
                    {
                      OFFSET 3.36516 0.537895 -0.128947
                      CHANNELS 3 Zrotation Xrotation Yrotation
                      JOINT LeftHandRing1
                      {
                        OFFSET 4.63474 -0.022105 -0.478947
                        CHANNELS 3 Zrotation Xrotation Yrotation
                        JOINT LeftHandRing2
                        {
                          OFFSET 3.44238 0 0
                          CHANNELS 3 Zrotation Xrotation Yrotation
                          JOINT LeftHandRing3
                          {
                            OFFSET 2.3881 0 0
                            CHANNELS 3 Zrotation Xrotation Yrotation
                            End Site
                            {
                              OFFSET 1.857 0 0
                            }
                          }
                        }
                      }
                    }
                    JOINT LeftInHandPinky
                    {
                      OFFSET 3.16105 0.469368 -1.20179
                      CHANNELS 3 Zrotation Xrotation Yrotation
                      JOINT LeftHandPinky1
                      {
                        OFFSET 4.14105 -0.022105 -1.09053
                        CHANNELS 3 Zrotation Xrotation Yrotation
                        JOINT LeftHandPinky2
                        {
                          OFFSET 2.75653 0 0
                          CHANNELS 3 Zrotation Xrotation Yrotation
                          JOINT LeftHandPinky3
                          {
                            OFFSET 1.74189 0 0
                            CHANNELS 3 Zrotation Xrotation Yrotation
                            End Site
                            {
                              OFFSET 1.645 0 0
                            }
                          }
                        }
                      }
                    }
                  }
                }
              }
            }
          }
        }
      }
    }
  }
}
MOTION
Frames:	4
Frame Time:	0.00833333
0 0 0 0 0 -0 28.8515 -0.0121518 -113.098 31.5716 -43.7911 25.1376 -6.18309 22.6743 0.48002 2.8391 -0.215882 39.9389 37.04 -4.39405 16.2838 -8.55782 23.1406 3.64877 -5.98373 -18.1704 16.3354 -9.91474 -6.22563 -4.39712 -2.43259 -1.83474 -0.798043 -4.0226 -3.14975 -1.15206 -0.479235 0.0326464 2.51696 -1.39149 -2.06678 26.2387 -8.55427 4.51154 32.6901 8.99512 3.59483 -9.48081 54.9146 -65.8529 17.8872 27.2902 -1.61581 120.115 11.4352 -20.0383 6.44014 28.184 10.7294 19.1592 2.12053e-14 -7.95139e-15 -10 4.68731e-15 -3.18055e-15 -10 -1.59028e-15 6.36111e-15 -0 19.9818 0.871897 2.3964 24 7.95139e-15 2.54444e-14 20 2.38542e-15 2.22639e-14 -1.59028e-15 6.36111e-15 -0 20 -6.36111e-15 9.54166e-15 24 3.18055e-15 2.22639e-14 20 1.19271e-14 2.22639e-14 -1.59028e-15 6.36111e-15 -0 19.9748 -1.02565 -2.81938 24 9.54166e-15 9.54166e-15 20 1.59028e-15 1.27222e-14 -1.59028e-15 6.36111e-15 -0 19.7815 -3.00948 -8.30515 24 6.36111e-15 1.59028e-14 20 7.95139e-15 1.90833e-14 8.29892 -15.1915 -57.0158 -7.48682 21.847 -115.359 33.6156 -11.0962 -36.1524 -38.0437 -6.3669 -15.8966 -28.184 10.7294 -19.1592 1.71887e-15 -8.74653e-15 10 -5.55514e-15 5.96354e-16 10 7.20594e-15 -5.96354e-15 -6.36111e-15 -19.9818 0.871897 -2.3964 -24 -3.18055e-15 -2.22639e-14 -20 3.18055e-15 -1.43125e-14 7.20594e-15 -5.96354e-15 -6.36111e-15 -20 1.11319e-14 -9.54166e-15 -24 0 -1.27222e-14 -20 1.27222e-14 -2.06736e-14 7.20594e-15 -5.96354e-15 -6.36111e-15 -19.9748 -1.02565 2.81938 -24 3.18055e-15 -0 -20 3.18055e-15 -1.43125e-14 7.20594e-15 -5.96354e-15 -6.36111e-15 -19.7815 -3.00948 8.30515 -24 9.54166e-15 -1.27222e-14 -20 -3.18055e-15 -3.18055e-15 
0 0 0 0 0 -0 28.7762 0.0301558 -113.441 31.7823 -43.5033 25.2882 -6.21458 22.6155 0.517624 2.90856 -0.229526 40.0628 37.0513 -4.20775 16.3933 -8.59454 23.3426 3.59323 -5.68164 -18.0841 16.6007 -9.86264 -6.29984 -4.38955 -2.41884 -1.85327 -0.794278 -4.00024 -3.18074 -1.14514 -0.473575 0.0510825 2.5172 -1.36585 -2.0121 26.3584 -8.47839 4.65258 32.6813 8.98124 3.5916 -9.53327 54.8165 -65.7422 17.5902 27.1254 -1.56466 120.263 11.5132 -19.8971 6.72326 28.184 10.7294 19.1592 2.50296e-14 0 -10 2.94921e-15 -1.59028e-15 -10 -7.15625e-15 1.59028e-14 -1.59028e-15 19.9818 0.871897 2.3964 24 7.95139e-15 3.18055e-14 20 3.97569e-16 1.90833e-14 -7.15625e-15 1.59028e-14 -1.59028e-15 20 -3.18055e-15 1.27222e-14 24 -1.59028e-15 1.90833e-14 20 1.27222e-14 1.59028e-14 -7.15625e-15 1.59028e-14 -1.59028e-15 19.9748 -1.02565 -2.81938 24 7.95139e-15 9.54166e-15 20 -1.59028e-15 1.27222e-14 -7.15625e-15 1.59028e-14 -1.59028e-15 19.7815 -3.00948 -8.30515 24 6.36111e-15 1.90833e-14 20 7.95139e-15 1.59028e-14 8.29444 -15.1447 -56.9474 -7.42614 21.8464 -115.614 33.7333 -10.9648 -35.9527 -38.0144 -6.23857 -16.0194 -28.184 10.7294 -19.1592 3.92706e-15 -1.11816e-14 10 -7.40535e-15 -1.78906e-15 10 5.93869e-15 -6.06293e-15 -6.36111e-15 -19.9818 0.871897 -2.3964 -24 -1.59028e-15 -1.90833e-14 -20 9.54166e-15 -1.59028e-14 5.93869e-15 -6.06293e-15 -6.36111e-15 -20 1.03368e-14 -6.36111e-15 -24 3.18055e-15 -1.27222e-14 -20 1.27222e-14 -2.22639e-14 5.93869e-15 -6.06293e-15 -6.36111e-15 -19.9748 -1.02565 2.81938 -24 0 -0 -20 3.18055e-15 -9.54166e-15 5.93869e-15 -6.06293e-15 -6.36111e-15 -19.7815 -3.00948 8.30515 -24 9.54166e-15 -1.27222e-14 -20 -3.18055e-15 -1.27222e-14 
0 0 0 0 0 -0 28.6406 0.193038 -113.977 32.1725 -43.0517 25.5889 -6.24914 22.5861 0.541116 3.00935 -0.250043 40.206 37.1398 -3.82528 16.6339 -8.60295 23.5251 3.50349 -5.4159 -18.0045 16.8456 -9.73704 -6.33436 -4.2522 -2.38845 -1.85109 -0.763123 -3.95039 -3.17265 -1.09734 -0.469333 0.0627254 2.5174 -1.34674 -1.98334 26.5405 -8.41147 4.75072 32.637 8.97165 3.59052 -9.53349 54.7129 -65.6261 17.3207 27.0253 -1.54081 120.421 11.5808 -19.7646 6.96604 28.184 10.7294 19.1592 1.50941e-14 3.18055e-15 -10 2.46587e-16 -3.18055e-15 -10 -1.15295e-14 3.18055e-15 -1.59028e-15 19.9818 0.871897 2.3964 24 6.36111e-15 2.8625e-14 20 3.97569e-16 2.8625e-14 -1.15295e-14 3.18055e-15 -1.59028e-15 20 9.54166e-15 1.27222e-14 24 4.77083e-15 2.8625e-14 20 1.35174e-14 3.18055e-14 -1.15295e-14 3.18055e-15 -1.59028e-15 19.9748 -1.02565 -2.81938 24 6.36111e-15 2.22639e-14 20 -2.38542e-15 1.27222e-14 -1.15295e-14 3.18055e-15 -1.59028e-15 19.7815 -3.00948 -8.30515 24 0 2.54444e-14 20 6.36111e-15 1.90833e-14 8.30267 -15.1132 -56.8564 -7.24741 21.7932 -116.149 33.9103 -10.8456 -35.1463 -38.0631 -5.91024 -16.3547 -28.184 10.7294 -19.1592 4.02329e-15 -1.0871e-14 10 -6.49944e-15 -3.00507e-15 10 5.10628e-15 -4.99446e-15 -6.36111e-15 -19.9818 0.871897 -2.3964 -24 0 -1.43125e-14 -20 9.54166e-15 -1.43125e-14 5.10628e-15 -4.99446e-15 -6.36111e-15 -20 1.03368e-14 -0 -24 1.59028e-15 -9.54166e-15 -20 9.54166e-15 -2.22639e-14 5.10628e-15 -4.99446e-15 -6.36111e-15 -19.9748 -1.02565 2.81938 -24 6.36111e-15 -0 -20 6.36111e-15 -7.95139e-15 5.10628e-15 -4.99446e-15 -6.36111e-15 -19.7815 -3.00948 8.30515 -24 9.54166e-15 -1.27222e-14 -20 0 -9.54166e-15 
0 0 0 0 0 -0 28.579 0.211678 -114.162 32.2485 -42.8979 25.6025 -6.28522 22.5652 0.512196 3.12313 -0.255133 40.3719 37.1052 -3.76556 16.7051 -8.58353 23.726 3.40153 -5.17218 -17.9434 17.0579 -9.70819 -6.36969 -4.31785 -2.38012 -1.86509 -0.778142 -3.93725 -3.19909 -1.12063 -0.465987 0.0694718 2.51756 -1.33292 -1.96928 26.7183 -8.35534 4.81114 32.5851 9.00909 3.63788 -9.60027 54.7645 -65.4836 17.2924 26.9277 -1.54022 120.525 11.5764 -19.6719 7.17843 28.184 10.7294 19.1592 1.36921e-14 -4.77083e-15 -10 3.35291e-15 -1.59028e-15 -10 -1.98785e-15 6.36111e-15 -3.97569e-15 19.9818 0.871897 2.3964 24 7.95139e-15 3.49861e-14 20 5.1684e-15 1.59028e-14 -1.98785e-15 6.36111e-15 -3.97569e-15 20 -1.27222e-14 1.11319e-14 24 1.59028e-15 1.27222e-14 20 1.43125e-14 2.54444e-14 -1.98785e-15 6.36111e-15 -3.97569e-15 19.9748 -1.02565 -2.81938 24 7.95139e-15 1.27222e-14 20 -2.38542e-15 6.36111e-15 -1.98785e-15 6.36111e-15 -3.97569e-15 19.7815 -3.00948 -8.30515 24 -3.18055e-15 1.43125e-14 20 7.95139e-15 1.27222e-14 8.29043 -15.0675 -56.7782 -7.27231 21.839 -116.114 33.9582 -10.7992 -35.05 -38.1301 -5.74601 -16.5591 -28.184 10.7294 -19.1592 -8.61077e-16 -7.85199e-15 10 -4.81634e-15 -1.59028e-15 10 5.42309e-15 -4.86557e-15 3.18055e-15 -19.9818 0.871897 -2.3964 -24 4.77083e-15 -2.22639e-14 -20 3.18055e-15 -1.59028e-14 5.42309e-15 -4.86557e-15 3.18055e-15 -20 8.74653e-15 3.18055e-15 -24 4.77083e-15 -9.54166e-15 -20 9.54166e-15 -2.06736e-14 5.42309e-15 -4.86557e-15 3.18055e-15 -19.9748 -1.02565 2.81938 -24 3.18055e-15 3.18055e-15 -20 0 -1.43125e-14 5.42309e-15 -4.86557e-15 3.18055e-15 -19.7815 -3.00948 8.30515 -24 6.36111e-15 -9.54166e-15 -20 -3.18055e-15 -1.43125e-14 
